PathFileType	4	(X/Y/Z)	C:/Users/beibeiliu/ov580/test_trc/User2\sequence.21_training_dense_right.trc
DataRate	CameraRate	NumFrames	NumMarkers	Units	OrigDataRate	OrigDataStartFrame	OrigNumFrames
120	120	16	19	mm	120	121	322
Frame#	Time	ThumbCMC			ThumbMCP			ThumbIP			ThumbTip			IndexMCP			IndexPIP			IndexTip			MiddleMCP			MiddlePIP			MiddleTip			RingMCP			RingPIP			RingTip			PinkyMCP			PinkyPIP			PinkyTip			BackHand1			BackHand2			BackHand3	
		X0	Y0	Z0	X1	Y1	Z1	X2	Y2	Z2	X3	Y3	Z3	X4	Y4	Z4	X5	Y5	Z5	X6	Y6	Z6	X7	Y7	Z7	X8	Y8	Z8	X9	Y9	Z9	X10	Y10	Z10	X11	Y11	Z11	X12	Y12	Z12	X13	Y13	Z13	X14	Y14	Z14	X15	Y15	Z15	X16	Y16	Z16	X17	Y17	Z17	X18	Y18	Z18	
120	1	75.8584	41.2226	34.519	40.3848	37.9292	13.5966	15.3939	28.3127	-5.29527	-3.82797	21.2537	-18.6811	67.4939	13.0866	-42.4988	41.7039	10.7204	-54.1493	14.3594	3.90087	-55.3711	58.9257	-4.2157	-38.6875	29.3732	-3.24581	-23.0933	46.4419	10.8524	12.5927	52.2684	-23.3545	-22.382	28.3849	-14.812	-3.71802	50.9173	-0.367433	20.7789	53.4462	-39.7388	-5.26162	32.2294	-21.5615	12.5092	56.596	-6.60435	32.4108	106.135	-18.8288	9.64222	119.996	-12.9071	46.5537	115.031	17.63	21.3643	
121	1.00833	78.2048	41.0386	31.3586	43.6473	39.9266	18.1807	15.7605	30.1842	-7.19688	-4.33833	24.4426	-18.9456	70.2744	11.271	-41.38	39.3067	10.8521	-55.5601	10.4976	5.19325	-57.1532	61.4895	-10.0157	-36.2242	28.3344	-1.44914	-24.7858	49.204	11.6938	11.6335	50.2111	-26.7747	-22.5855	27.8278	-12.8403	-3.0357	52.669	3.50761	17.6392	48.9767	-38.3722	-6.26154	30.5043	-17.8879	9.44839	54.4834	-6.0365	31.3595	104.986	-23.0059	10.6251	116.097	-18.8502	44.5257	113.274	11.1886	19.6003	
122	1.01667	80.8028	41.5896	28.2739	44.7348	41.4763	14.443	17.9904	32.247	-6.58019	-1.0373	22.7832	-21.299	69.1943	11.6411	-45.4456	40.2097	9.66544	-57.4735	15.6393	8.93443	-59.113	62.0749	-9.32763	-38.3753	29.1963	-2.51559	-25.5579	48.008	14.6277	8.14249	47.6972	-26.3538	-24.0861	26.7635	-10.2696	-6.30488	52.5508	1.86691	17.467	46.8548	-34.5551	-8.80639	29.512	-17.1485	6.78301	54.9114	-7.86164	30.5394	104.303	-27.6352	9.39977	116.676	-21.4616	46.8653	117.409	13.79	20.5509	
123	1.025	84.0184	41.8253	29.0172	46.3434	41.9372	10.0784	21.6507	33.6297	-6.47139	-2.93322	28.7161	-21.7414	72.2953	10.8388	-46.7706	45.4671	10.059	-59.1794	12.2529	6.30524	-61.3163	61.0151	-11.015	-39.5491	29.8305	0.817558	-26.1322	47.2023	15.5506	5.25702	47.3248	-25.3746	-27.0653	27.7269	-8.89009	-9.63988	50.8094	1.63683	14.2501	48.5311	-39.9787	-8.30694	28.8684	-16.1464	9.85174	52.4594	-5.94127	29.3137	104.215	-29.1776	11.0393	118.399	-21.142	44.7332	117.168	11.5153	19.3435	
124	1.03333	85.133	37.9459	27.3465	51.1791	40.3307	12.0894	21.4561	34.0997	-8.67503	1.7372	25.2393	-22.2121	72.9191	9.70516	-48.714	46.7381	8.59002	-60.2125	17.911	8.61321	-64.5575	61.4606	-7.94912	-43.8256	31.3813	-2.63074	-30.2525	48.5907	12.8855	6.05432	50.0842	-27.3331	-26.2259	27.7306	-12.1371	-10.7077	53.3229	2.84224	12.7689	46.4911	-39.9468	-10.0093	29.8568	-17.3027	7.4018	52.4808	-6.6345	24.6572	104.085	-26.8842	9.52982	119.397	-18.3188	43.7263	118.656	12.0875	17.5815	
125	1.04167	85.6774	39.1267	28.9802	48.8442	40.0343	10.6049	22.4669	32.8864	-7.66384	1.94481	25.329	-24.2934	77.4366	11.4873	-46.3751	51.3534	10.9066	-61.2257	18.9855	7.50757	-66.6387	65.05	-10.9821	-41.6126	31.6266	2.68245	-29.2593	51.1218	12.1173	6.6725	52.7216	-23.8017	-28.594	29.7856	-12.0253	-8.68722	52.2607	1.54744	11.9021	53.737	-37.2095	-10.6364	31.2425	-19.835	1.84597	51.8821	-7.79691	23.5773	107.713	-29.4869	9.23576	118.685	-21.0589	42.7098	118.375	12.0254	17.3252	
126	1.05	81.3617	37.8673	30.6436	47.4207	37.534	14.0518	19.8833	31.4697	-8.46054	2.39022	21.7848	-21.3306	77.9047	16.7208	-46.0184	49.5023	9.3911	-61.4759	21.9875	3.84961	-66.7365	64.4428	-8.50089	-43.2417	32.734	-1.18555	-28.4257	49.2002	8.48046	6.52277	53.0421	-26.1051	-28.9476	31.3794	-13.3928	-12.4149	54.2131	-2.37675	15.4512	55.4489	-39.5097	-11.9778	31.8982	-23.133	5.08522	53.7304	-8.48398	24.4314	109.65	-22.866	8.05199	120.612	-20.9477	43.5339	119.078	14.5304	17.8743	
127	1.05833	75.44	38.7323	34.2872	43.3381	31.5241	14.8733	16.504	26.9659	-4.42672	-0.753186	17.6878	-22.6198	75.478	18.8173	-43.3323	49.3834	17.7145	-61.8924	21.0667	9.35091	-69.169	67.4512	-0.00929909	-42.893	33.6897	-2.05763	-27.4741	49.6763	9.4229	7.92311	57.9227	-19.4088	-30.9431	32.4708	-14.5794	-9.89315	53.2044	-5.06243	15.1891	55.592	-38.2193	-16.8275	35.3175	-22.6447	4.93878	55.0608	-12.072	27.1886	109.903	-19.4174	7.67819	119.867	-12.8017	46.52	114.037	17.6645	25.4032	
128	1.06667	66.1119	38.5474	41.0321	36.5839	28.2234	21.788	12.1223	20.1049	-3.82176	-5.85204	11.8311	-25.3167	72.0538	29.0095	-41.4716	51.2969	21.0048	-57.6028	24.1273	11.32	-67.7045	69.3622	5.18653	-39.9132	32.8483	-0.248426	-29.3192	47.5359	7.39671	8.85237	59.1017	-16.0376	-33.4223	34.3272	-16.0651	-13.0264	55.3055	-4.15661	14.6563	61.2678	-37.1835	-19.5094	38.0117	-26.6022	-1.93026	54.0674	-14.1163	21.3038	110.409	-12.4281	6.7958	121.712	-11.5209	43.9643	108.991	22.8979	29.7819	
129	1.075	59.5721	30.6047	42.6761	30.5214	21.905	20.9114	6.03763	15.289	-3.40413	-8.06825	5.03218	-23.0579	66.4962	30.972	-39.0886	46.1598	27.7252	-55.8189	22.2427	13.2133	-67.8852	64.7232	10.018	-41.4579	33.4473	-5.08745	-29.5791	43.0452	4.62002	9.57696	63.2441	-13.4776	-33.1275	37.2635	-21.0357	-18.9181	54.1776	-9.29024	15.0346	70.2711	-30.5398	-21.1714	41.597	-32.5917	-0.456797	57.3509	-21.4776	24.101	110.766	-5.02724	9.95564	117.733	-5.65855	48.1253	103.382	28.5588	32.9594	
130	1.08333	53.6811	24.8007	48.3685	23.0926	15.5904	21.3856	5.21045	6.37266	-5.68043	-6.10516	-4.13417	-25.3742	61.4442	36.2705	-32.3351	40.3945	31.0261	-51.7193	22.2296	12.7379	-67.6304	64.1398	9.08715	-39.7858	33.9009	-6.44602	-29.9508	39.5545	-4.19245	6.97782	64.9147	-13.1686	-33.636	39.1199	-22.762	-18.5878	52.5228	-11.7952	15.2328	70.739	-27.5265	-23.7906	45.93	-36.2482	-7.74256	56.3075	-22.9271	23.2912	109.171	2.55249	11.9359	117.55	-6.89197	47.4963	96.1917	27.811	36.3148	
131	1.09167	48.6661	18.0273	47.6274	22.1094	6.12366	26.3217	1.13886	-0.903112	-5.93855	-6.56853	-9.66754	-26.2917	54.2013	40.6602	-25.7783	37.583	31.7999	-48.9003	17.3771	16.8145	-65.831	65.4076	14.6131	-34.7466	34.7866	-8.30339	-31.4725	42.4048	-10.199	7.67705	68.5715	-9.78679	-33.0213	42.2711	-25.0242	-22.5205	54.1767	-16.8573	12.9729	76.3267	-25.994	-26.3701	49.4933	-36.2693	-8.40416	58.0168	-28.328	20.3092	106.706	5.29825	16.1484	116.381	-0.55228	45.8361	90.9561	28.7341	38.1653	
132	1.1	41.7218	11.7064	53.1646	18.9626	-0.58936	25.006	2.06947	-6.79711	-8.9522	-0.881162	-16.1527	-30.748	53.0981	36.2282	-24.4257	36.6974	28.1887	-48.3947	14.5388	14.1538	-70.1282	62.2232	19.805	-34.5504	37.2868	-10.5785	-35.6125	41.9982	-16.1254	2.00734	69.1466	-7.80172	-34.8543	46.414	-25.9062	-27.683	53.535	-17.9056	9.66186	82.8772	-23.1713	-26.8919	53.6793	-37.169	-11.7989	62.1602	-27.7205	14.4166	108.694	7.89477	16.9433	115.931	-2.63787	50.0847	86.6591	28.0089	46.0131	
133	1.10833	39.8424	5.40977	51.7571	23.3241	-7.15419	17.7188	9.13151	-14.244	-9.94123	3.52549	-21.1941	-35.5362	46.4354	38.2471	-25.0583	32.2672	27.9289	-49.113	20.4267	9.45169	-72.367	64.09	15.9149	-36.7412	40.1415	-7.76546	-40.4979	45.0576	-19.9775	-0.604262	74.0303	-6.74339	-35.8031	53.7467	-30.1057	-30.2229	59.424	-26.061	5.86923	85.6024	-24.0051	-30.6306	60.2748	-41.9706	-14.379	65.1593	-30.5749	11.0211	105.687	9.26203	16.7817	111.482	3.72012	49.2511	80.8014	26.3004	45.4591	
134	1.11667	44.2745	-1.36416	49.0446	26.4165	-14.0013	18.1689	8.00775	-18.6131	-15.9221	6.31181	-23.5929	-41.951	50.1528	35.3609	-24.591	33.6917	28.4815	-48.254	21.8782	9.09206	-73.0238	63.5808	19.196	-36.3529	45.3256	-12.3178	-41.7749	50.1541	-20.4971	0.74597	75.4634	-3.58888	-37.1516	57.9162	-28.7045	-33.3881	61.8117	-21.7054	6.26406	91.5592	-18.3193	-29.5121	65.0923	-38.927	-17.8969	69.712	-31.6657	10.2236	106.535	11.7901	21.0793	112.584	-0.785811	53.8322	83.5442	22.0986	47.0569	
135	1.125	43.6143	-4.49441	45.3423	25.6592	-17.8751	14.345	13.6183	-22.4333	-20.3839	14.4208	-26.9365	-44.5635	48.7677	34.5824	-22.9911	40.939	24.1771	-51.0667	31.3084	7.02148	-74.3349	68.2146	15.9948	-38.8095	51.5747	-14.2103	-44.0192	52.3886	-24.7355	-5.79505	78.7493	-5.40792	-39.8505	62.9293	-30.6446	-32.1502	67.3478	-27.1219	1.16062	95.2934	-18.1968	-30.265	72.5203	-42.5501	-20.0341	76.2905	-34.8985	10.3582	107.889	11.3378	17.1639	114.586	1.35809	54.2728	80.7602	20.9565	43.183	
